<?xml version="1.0" encoding="UTF-8"?>
<svg id="Layer_1" xmlns="http://www.w3.org/2000/svg" version="1.1" viewBox="0 0 1024 1024">
  <!-- Generator: Adobe Illustrator 29.4.0, SVG Export Plug-In . SVG Version: 2.1.0 Build 152)  -->
  <defs>
    <style>
      .st0 {
        fill: #231f20;
      }
    </style>
  </defs>
  <path class="st0" d="M855.6,245.1c.6-2.9,3.6-2.2,6.1-2.4,1.7-.3,11.2.7,6.2,3.1-1.7.7-4.2.8-5.9,1.7-1.9.9-2.6,3.4-.8,4.8,1.8,1.8,5.4,1.3,7.4,3,.6,1-.9,1.4-1.6,1.7-1.3.5-3,.7-4.3,1.1-2.9.9-3.8,5-1.7,7.2h.1c1.8,2,7.4,1.4,8.3,3.3.3,2.7-9,2.1-11,2-2.2-.1-3-1.5-3-3.8,0-5.5-.3-15.6.2-21.6Z"/>
  <path class="st0" d="M796,242.5c2-.7,4.7-.8,6.7,0,2,.7,4,2.6,1.3,3.4-3.4.7-8.4.1-10.1,4.4-2.3,6-1.3,16.9,5.8,16.7h.2c17.8-1.1-9.4,13.8-11.6-7.3-.9-6.9,1.1-15.3,7.7-17.1Z"/>
  <path class="st0" d="M747.6,244.4c.5-1.3,1.9-1.5,3-1.6,2.6-.2,7-.3,9.1.6,2.5.9,1.3,2.1-.6,2.6-1.6.5-3.8.6-5.2,1.5-2.1,1-2.5,3.4-.8,4.8,1.8,1.9,5.7,1.1,7.5,3.2,0,.2,0,.4-.2.7-2,1.7-5.5,1-7.4,2.9h-.1c-2.1,2.3-1.2,6.4,1.7,7.3,2,.8,5.3.4,6.7,2.4-.5,2.6-8.1,1.9-10.5,1.9-3.9,0-3.6-3-3.6-6.4.2-5.8-.5-14.6.4-19.8Z"/>
  <path class="st0" d="M734.6,242.4c2.2,0,4.2-.1,6.1.4,3.2.8,1.6,2.3-.5,2.9-2.2.8-4.6.9-4.9,3.5-.4,4.6,0,11-.2,16,.3,4.2-2.4,7.7-4,3.1-.4-1.7-.3-3.5-.3-5.3-.3-4.5.6-10.9-.5-14.9-1-2.1-4.4-1.8-6.3-3.1h0c-3.2-3.2,9.2-2.5,10.7-2.6Z"/>
  <path class="st0" d="M715.1,242.4c3.8,1.5,1.2,2.9-1.2,3.6-1.8.7-5.5,1.5-4.3,4.4,1.4,3,5.3,4.3,7.5,7v.2c6.3,8.2-3,16.1-10.4,12.9-5.9-3.4,4-3.6,5.8-4.9,1.3-.7,2-1.8,1.8-3-.9-4.5-6.8-5.8-9-9.5-4.2-7,4-12.6,9.9-10.6Z"/>
  <path class="st0" d="M347.2,242.4c4.2,1.5,1.3,2.9-1.3,3.6-2,.7-6,1.5-4.7,4.4,1.6,3,5.8,4.3,8.2,7v.2c6.9,8.2-3.3,16.1-11.4,12.9-6.4-3.4,4.4-3.6,6.3-4.9,1.4-.7,2.1-1.8,2-3-1-4.5-7.4-5.8-9.8-9.5-4.6-7,4.4-12.6,10.8-10.6Z"/>
  <path class="st0" d="M314.1,243c1.9,2.5,1.3,6,1.4,9,.2,4.3-.7,10.7,2.1,13.4,2.2,2.2,5.2-.2,5.6-3.1v-.2c1-5.4-.3-12.3.9-17.3,1.9-5.6,4.2.4,3.8,4.8-.4,6.9,1.3,13.4-2.4,18.8-1.9,2.5-5.7,3.4-8.6,2.3-5.4-2.3-5.6-7.6-5.7-13.7.1-2.3-1-16.7,2.9-14Z"/>
  <path class="st0" d="M297.7,242.4c2.4,0,4.6-.1,6.7.4,2.8.6,2.5,1.9.1,2.7-2.1.9-5.1.9-5.8,2.9-1,4.9-.2,11.5-.4,16.8.3,4.2-2.7,7.7-4.3,3.1-.5-1.5-.4-3.3-.4-5-.3-4.6.6-11.2-.6-15.2-1.1-2.1-4.8-1.8-6.9-3.1h-.1c-3.5-3.2,10-2.5,11.7-2.6Z"/>
  <path class="st0" d="M273.4,243.1h0c1,.8,1.3,2.4,1.3,3.6,0,4.2,0,12,0,16,0,.8,0,1.6.4,2.3.5,1.1,1.4,1.5,2.7,1.7,2,.3,4.9.2,6.7,1,1.2.5,1.8,1.1,1.4,1.6-1.9,2-7.6,1.4-10.5,1.5-3.7,0-5.5-.4-5.3-4.1,0-4.7,0-14.4,0-19.5-.1-1.8.8-5.4,3.1-4.1Z"/>
  <path class="st0" d="M249,243c1.9,2.5,1.3,6,1.4,9,.2,4.3-.7,10.7,2.1,13.4,2.2,2.2,5.2-.2,5.6-3.1v-.2c1-5.4-.3-12.3.9-17.3,1.9-5.6,4.2.4,3.8,4.8-.4,6.9,1.3,13.4-2.4,18.8-1.9,2.5-5.7,3.4-8.6,2.3-5.4-2.3-5.6-7.6-5.7-13.7.1-2.3-1-16.7,2.9-14Z"/>
  <path class="st0" d="M232.6,242.4c2.4,0,4.6-.1,6.7.4,2.8.6,2.5,1.9.1,2.7-2.1.9-5.1.9-5.8,2.9-1,4.9-.2,11.5-.4,16.8.3,4.2-2.7,7.7-4.3,3.1-.5-1.5-.4-3.3-.4-5-.3-4.6.6-11.2-.6-15.2-1.1-2.1-4.8-1.8-6.9-3.1h-.1c-3.5-3.2,10-2.5,11.7-2.6Z"/>
  <path class="st0" d="M211.3,242.4c4.2,1.5,1.3,2.9-1.3,3.6-2,.7-6,1.5-4.7,4.4,1.6,3,5.8,4.3,8.2,7v.2c6.9,8.2-3.3,16.1-11.4,12.9-6.4-3.4,4.4-3.6,6.3-4.9,1.4-.7,2.1-1.8,2-3-1-4.5-7.4-5.8-9.8-9.5-4.6-7,4.4-12.6,10.8-10.6Z"/>
  <path class="st0" d="M782.8,254.4v-.2c4.2-7-2.1-11.9-8.4-11.8-6-.5-6.9,1.3-6.7,6.8,0,4.1,0,9.4,0,13.5,0,3.1-.2,4.9.7,6.6.6,1.2,1.6,1.3,2.3.2,2.6-4,.3-15.4,7.2-5.9,1.8,2.7,4,6,6.7,6.8.8.3,1.5,0,1.6-.9-.8-5.4-7.9-8.8-3.4-14.9ZM777.5,254.1c-2.1.6-5.3,1.3-5-1.9.1-1.5-.4-4.2.5-5.3h.1c1.5-.7,4.5-.4,6,.8,2.3,1.8,1,5.6-1.5,6.4Z"/>
  <path class="st0" d="M847.7,254.4v-.2c4.2-7-2.1-11.9-8.4-11.8-6-.5-6.9,1.3-6.7,6.8,0,4.1,0,9.4,0,13.5,0,3.1-.2,4.9.7,6.6.6,1.2,1.6,1.3,2.3.2,2.6-4,.3-15.4,7.2-5.9,1.8,2.7,4,6,6.7,6.8.8.3,1.5,0,1.6-.9-.8-5.4-7.9-8.8-3.4-14.9ZM842.4,254.1c-2.1.6-5.3,1.3-5-1.9.1-1.5-.4-4.2.5-5.3h.1c1.5-.7,4.5-.4,6,.8,2.3,1.8,1,5.6-1.5,6.4Z"/>
  <path class="st0" d="M819.6,242.1h-.2c-6.7.3-9,7.2-9,14.6,0,6,1.4,11.4,5.4,13.6,4.5,2.6,10.1-.4,11.6-5.6,2.3-7.6,1.8-22-7.9-22.5ZM819.4,267.3h-.2c-3.9-1-4.5-5.4-4.7-9.9,0-5.2.6-11.3,5.5-11.4,6.1.7,5.9,21.9-.7,21.2Z"/>
  <g>
    <path class="st0" d="M598.2,142.5c-9.2.3-11.8.7-11.8,1.8,0,1.7,3.2,5.7,12.4,15.5,3.9,4.2,9.9,10.7,13.2,14.5,3.4,3.9,7.5,7.8,9.2,8.8l3.1,1.7.6-5.3c.8-6.3.3-35.3-.6-36.2-.9-.9-12.6-1.3-26.1-.8Z"/>
    <path class="st0" d="M436.9,142.8l-7,.5-.3,9c-.3,8.4,1.4,31.4,2.4,32.5.3.2,3.9-3.4,8.2-8,4.2-4.7,12.1-13.2,17.5-19,5.5-5.7,10.5-11.7,11.3-13.3l1.5-2.8-13.3.3c-7.3.2-16.4.5-20.3.8Z"/>
  </g>
  <path class="st0" d="M900.1,599.7c-3.5-14.1-6.1-20.3-23.3-55-14.4-29.1-18.3-38-18.3-41.8s.9-1.3,3.2-1c8,1.2,24.3-8,29.3-16.6,5.3-9.1,5.6-12.1,4.8-46.6-1.2-46.5-1.6-41.9,5.8-60.3,1.5-3.6,2.2-7.4,2.2-12.7,0-13.7-6.7-21.8-22.5-26.9-4.4-1.4-8.8-.4-25.3,5.9-5.5,2.1-16.5,5.9-24.4,8.4-7.9,2.6-17.8,6.4-22,8.6-4.3,2.2-8.2,4-8.8,4s-1.7.7-2.4,1.7c-2.3,2.7-25.9,17.5-40.7,25.4-1.9,1-5.7,3.3-8.5,5.2-6.8,4.4-19.1,11.3-29.7,16.5-4.7,2.3-9.2,4.6-10,5-7.8,4.4-31.9,14.6-36.8,15.7-5.2,1.1-7.9-1.3-8.6-7.7-.7-7.1-1.5-253.8-.9-265.4l.6-9.2,5.5-.6c6.8-.8,12.9-4.1,14.9-8,1.7-3.2,2-6.7,2.4-22.7.3-10.3-.4-13.2-3.4-15.7-1.5-1.3-303-2.4-306.5-1.1-4.5,1.7-5.4,7.4-4.1,26,.5,7.5,1.3,12.8,2.4,14.8,2.4,4.8,7,7.1,13.8,7.1h5.7v41.7c.2,91.7.2,217,0,220.4v3.6c0,0-6.3,1.3-6.3,1.3-3.5.7-7.2,1.5-8.3,1.7-3.3.7-35.3.5-37.4-.2-1.7-.5-1.9-1-1-3.3.6-1.5,2.4-4.8,4.1-7.5,2.9-4.6,3-5,2.6-14.5-.3-6.3-1-10.8-2-12.8-2.4-4.5-10.8-13.4-13.7-14.6-1.7-.7-12.9-1-31.6-.9-32.6.2-37.5.9-41.8,6.1-3.4,4-5.9,3.8-11.9-1.3l-5-4.2-32.7.2c-37,.3-38.2.5-44.9,7.7-5.8,6.3-6.7,9.9-6.7,26.1v14l4.2,8.5c5.9,11.9,6.7,16.7,5.8,33.5-1.1,20.5-1.2,51-.4,104.4,0,0,0,30-.2,41.2-.1,14.2-.7,24.4-.7,24.4-31.3-24.1-54.5,4-59.8,33.2-2.2,11.9-2.8,32,1.4,53.7,5.2,24.9,28.8,32.8,49.1,35.5,0,34.3,8.8,80.8,23.4,94.2,17,25.7,37.1,38.1,60.7,37.3,10.8-.3,19.9-3,26.3-7.9,4.7-3.5,9.3-5.6,12.2-5.6s6.5,1.6,11.3,3.6c5.8,2.4,11,3.8,15.5,4.1,6.2.5,7.3.3,13.2-2.7,11.8-6,18.3-15,17-23.5l-.6-4.3,13.3-5.2c7.3-2.8,14.4-5.6,15.8-6.2,2.1-.9,23.5-8.7,53.4-19.4,3.8-1.4,8.6-3.4,10.7-4.4,11.7-6,56.7-21.7,65-22.7l4.8-.6,1.1,4.3c.8,3.2.9,5.5,0,8.6-1.8,7-1.4,9.9,1.9,13.4,1.7,1.8,3,3.4,3,3.6s-2.5,4-5.6,8.6c-11.1,16.6-17.4,33.3-17.4,46.1s5.6,23,13.9,30.5c4.8,4.4,12.8,9.1,18.9,11.1,4.9,1.7,8.2,2,16.9,1.8,10.1-.2,11.4-.4,17.8-3.6,9.1-4.5,18.1-13.5,22.6-22.7,3.3-6.7,3.4-7.2,3.3-18.9,0-9.8-.5-13.1-2.2-18-2.3-6.2-11.3-22.7-16.5-30.4-2.7-4-2.9-4.6-1.6-6.5,1.1-1.6,1.4-7.1,1.4-25v-22.9l3.2-1.8c1.7-1,5.1-2.4,7.5-3.3,2.3-.8,10.1-3.8,17.2-6.6,7.2-2.8,16.1-6,19.9-7,10.6-2.9,22-7.6,36-14.6,8-4.1,14.5-6.7,17.5-7,4.5-.6,13.6-3,15.7-4.3.6-.3,1.5-.6,2-.7,1-.2,9.5-3.1,19.5-6.6,3-1,6.2-2.1,7-2.3,5.2-1.3,10.8-3.9,13.1-6.1,2.1-2.1,3-2.3,5.1-1.5,2,.8,3.4.5,6.4-1.1,2.2-1.1,7.9-3.6,12.9-5.5,4.9-1.8,9.9-3.8,10.9-4.4,1.8-1,1.8-.8,1.1,3.3-1.4,7.7-2,22.1-1.3,28,.4,3.2,1.7,8.4,2.8,11.5,3.8,11,14.9,17.6,26.2,15.4,7.4-1.4,13.9-3.8,16.4-6.2l2.2-2,7.3,2.3c5.9,1.8,9.5,2.3,17.9,2.2,18.4-.2,33.6-7,48.4-21.8,21.7-21.5,32.5-50.9,32.6-88.1,0-15.4-1.2-26.5-4.4-39.5ZM392.7,140.3c-5.4-.2-9.9-.6-10-.8-.2-.3-.2-6.7,0-14.3l.3-13.7h70.2c39.8,0,71.5-.4,73.2-.9,4.2-1.3,5.9-1.3,7.3.1.9.9,10.1,1.2,33.9,1.3,18.1,0,49.7.2,70.4.3l37.6.2v12.9c-.2,7.1-.5,13.2-.8,13.5-.3.4-5.3.9-11,1.2-5.7.3-10.6.8-10.9,1-.3.3-.3,64.2,0,142l.4,141.4h-2.1c-1.1,0-3.3-1.1-4.9-2.4-1.5-1.3-5.9-4-9.8-5.9-3.8-2-7.8-4.3-8.8-5.1-1.8-1.4-1.9-5.7-2.3-94.3-.2-51-.6-94-.9-95.4-.4-1.5-3.9-6-7.8-10-4-4.1-15.6-16.6-25.7-27.9-10.2-11.3-22.8-24.8-28-30.1-10.3-10.5-8.3-9.5-23.9-11.5l-5.4-.6.5,7.8c.3,4.7,0,8.5-.5,9.5-.8,1.3-.6,2.4.6,4.3,2.3,3.4,2.1,5.1-.5,6.8l-2.2,1.5,2.3,3.6c2.1,3.4,2.1,3.8.7,6.6-2,3.7-2,6-.1,8.5,2,2.7,1.9,5-.5,7.1-2.5,2.2-2.5,3.3,0,6.5s2.5,5.7,0,7q-2,1.1-.1,4.4c1.1,1.9,2.3,5.2,2.7,7.5.6,3.8.4,4.4-2.8,7.6s-6.8,4.4-9.6.8c-3-3.7-3.6-6.8-2.3-12.3.8-3.5.8-5.6,0-7.8-.9-2.4-.9-3.6.1-5.6,1.4-2.5,1.2-3.6-1.1-6.8-1-1.4-.9-2,.5-3.6,2.1-2.3,2.1-3.6.1-6.7-1.5-2.3-1.5-2.7-.1-4.9,1.1-1.7,1.4-3.3.8-5.3-.4-1.5-.6-10.4-.4-19.6l.3-16.9-7.8.7c-4.2.4-9.1,1.1-10.8,1.6-2.1.7-8.7,6.8-20.4,19.2-9.5,10-23.9,25.2-31.9,33.7-8.1,8.5-16.2,17-17.9,18.9l-3.2,3.4v91.7c0,50.5-.3,87.8-.6,90.2-.5,3.7-7,7.9-10.7,9.6l-14.2,4.2c-.3-2.4-.5-63-.5-137s-.4-135-.8-135.6c-.4-.7-4.8-1.3-10.4-1.6ZM609,395c-1.7-1.2-5.3-3.7-8.1-5.5l-5-3.2-.7-7.4c-.9-10.7-6.9-22.7-13-26-2.4-1.3-4.4-2.5-4.6-2.7-.2,0,1.2-3.3,3.1-7,5.5-10.9,6.2-15.7,4.9-34.1-.7-9.1-2-19.2-3.2-23.8-2.6-10.1-8.5-22.5-13.9-29.3-4.8-6-17.4-14.8-22.7-15.8-3.8-.7-4.1-1.4-1.8-4.9,1.8-2.8,3.5-13.5,2.4-15-.4-.6-1-8.3-1.4-17.3s-.7-16.6-.7-17c0-.4,0-7.3,0-15.3v-14.6c.1,0,4.8.7,4.8.7,2.9.5,5.1,1.4,5.8,2.5,2.1,3.6,11.8,14.5,12.9,14.5s1.8,1.4,2.6,3c.8,1.6,4.9,6.6,9,11.2,17.9,19.8,20.7,22.7,27.9,29.9l7.7,7.6v85.9c0,93.9.3,88.1-6,83.6ZM470.7,319.4l.2,13,4.2,8.2,4.3,8.1-5.9,4.6c-3.3,2.5-6.9,5.8-8,7.4-2.5,3.5-5.1,13.1-5.1,18.9s-.6,4.9-2.2,6.3c-3,2.6-15.6,10.9-16.6,10.9s-.7-39.1-.8-87c0-82.7.1-87,1.8-87.6,1-.3,6.2-5.3,11.5-11.1,13.5-14.6,14.3-15.5,27.4-28.9,6.4-6.6,13.7-14.6,16.4-17.9,2.6-3.3,5.4-6.6,6.3-7.3,1.8-1.3,5.1-1.6,6.8-.4,1.3.8,2.2,59.3.9,65.4-.6,2.9-.1,4.8,2.4,10.1,1.7,3.6,3.1,6.7,3.1,7s-1.8.7-4.1,1c-5.7.7-14,6-21.9,14-5.2,5.2-7.9,8.9-11.4,16-4.2,8.7-5,11.6-8.4,30.7-.6,3-1,11.4-.9,18.6ZM896.8,644.8c-.9,15.6-2.3,25.5-4.5,31.5-5.1,14.2-7.5,19.6-11.3,26-12.9,21.8-22.8,29.6-47.8,37.4-1.9.6-7.1,1.1-11.5,1.1-6.7,0-8.9-.5-14.1-2.9-5.7-2.7-9.8-3.1-11.3-1.1-1.4,2-12.2,7.1-16.2,7.6-6.4.9-11.1-1-15.6-6.2-5.3-5.9-6.8-12.9-5.6-26.2.5-5.3.9-13.8.9-18.7v-9l-2.8-.3c-1.6-.2-5.5,1.1-9.9,3.3-10.8,5.5-22.3,9.5-27.5,9.5s-5.8.8-9.7,3.4c-3.6,2.5-9.3,4.7-19.4,7.5-7.8,2.3-16.8,5.4-20,7.1-5.8,2.9-11,3.9-14.8,2.7-2.1-.7-2.8-.4-19.4,8.6-10.5,5.6-31.4,13.9-33.3,13.1-.8-.3-1.8-.1-2.2.5-.3.6-2,1.1-3.6,1.1s-6.9,2-11.7,4.4c-4.9,2.4-11.6,5.6-15,6.9-3.4,1.4-7.5,3.5-9,4.6-1.6,1.1-4,2.3-5.4,2.6-2.5.6-2.7.3-4.4-5-2.2-7-4.5-8.7-11.1-8.3-4,.2-4.8.6-4.8,2.3s1,2.3,3,3c4.7,1.5,6,4.9,3,7.9-1.9,1.9-1.9,3.6,0,3.6s2.7,1.1,4.1,2.5c2.8,2.8,2.5,6.5-.7,10.1-1.9,2-1.9,2.1.6,4.4,3,2.8,3.3,8.4,1,15.5-1.5,4.3-1.5,4.6.6,7.4,2,2.7,2.1,3.3.9,6.1-.7,1.8-2.2,3.3-3.6,3.6-1.3.3-2.4.8-2.4,1s1.4,2.6,3,5.4c1.7,2.8,3,5.4,3,5.9s2.1,3.9,4.8,7.7c7.5,11,11.2,18.7,12.8,27.1,3.5,17.7-2.5,32.6-16.4,41-5.4,3.2-16.5,6.3-18.4,5.1-.7-.4-3.1-.8-5.3-.8-5.2,0-15-4-19.8-8-7.1-6-11.7-16.5-11.7-27s3.4-19.4,7.8-26.7c2.3-3.8,4.2-7.4,4.2-8s.7-1.7,1.7-2.4c.9-.8,2.1-2.5,2.7-3.9.6-1.4,2.3-4.5,3.8-7,4.4-7.6,4.4-8.7.4-10.6-4.6-2.2-5.3-5.3-2.5-10.9q2.2-4.3.2-7.2c-3.1-4.5-3.4-6.2-1.6-10,1.3-2.8,1.4-3.9.5-5.4s-.9-2.8.3-6.1c.8-2.3,1.2-5.3.9-6.5-.5-1.7,0-2.5,2-3.4,2.1-1,3.7-.8,9.1,1,8.9,2.9,10.5,2.8,7.5-.4-2.3-2.5-10.7-5.5-15.4-5.5s-11.2,7.5-12.1,12.3c-1.1,5.6-4.6,7.8-21.1,13.2-8.2,2.6-18.7,6-23.4,7.5-11.5,3.8-28.6,10.6-33.5,13.5-2.2,1.2-8.9,3.9-15,5.8-6,2-15.5,5.5-21,7.8-8.1,3.4-11.2,4.2-16.5,4.3-5.5,0-6.8.4-8.3,2.4-1.1,1.2-3.5,3.1-5.5,4.1-4.5,2.2-25.3,9.1-27.6,9.1s-1.6,1.4-1.6,8.9-1.3,12.8-8.3,18.5c-3.2,2.6-4.8,3.1-10.6,3.4-9,.5-16.8-1.2-24.8-5.5-5-2.6-9.3-4.4-13.4-2.2-.8.4-8.6,6-10.7,7.3-7,4.5-13.4,5.9-24.6,5.3-11-.6-13.9-1.3-23.5-6-11.4-5.7-21-16.9-31.5-36.8-9.9-18.6-13.2-32.1-14.6-58.8-.5-9.7,1.2-25.2-3.9-30.7-51.2,3.7-53.1-41.3-51.2-66.3,1-13.3,3.2-25,15.6-39.2,20.9-16.1,41.4,5.9,42.2,15.7.8,9.8-5.6,6-5.7,16.2,0,10.3,11.7,1.5,11.3-13.6s.5-37.5.5-46.3c.4-31.8-.8-172.1-1.4-174.9-.4-1.9-2.7-7.2-5.2-11.8l-4.5-8.2v-10.5c0-12.9,1.5-16.5,8.7-21,5.2-3.2,4.7-3.2,25-2.6,5.5.2,17.1,0,25.7-.4,17.8-.9,20.5-.3,23.8,5,3,4.9,2.8,17.8-.5,27.5-3.1,9.1-3.1,10.8,0,14.3,2.3,2.6,2.7,2.7,5.2,1.5,4.4-2.2,4.9-4,2.8-10.5-2.7-8.2-2.4-20.7.5-26.7,2.4-5,9.1-11.6,11.8-11.7,14.4-.4,58.5.3,60.3,1,3.6,1.3,8.7,5.9,10.4,9.2,1.9,3.5,1.9,13.1,0,18.2-.7,2.2-3,6.6-5.1,10-2.9,4.6-3.7,7-3.5,9.9.1,3,2.4,4.6,2.8,4.9.8.9,16.5,1,38.8.8h18c0-.1,7.8-3.7,7.8-3.7l7.8-3.7,27.6-8.9c8.2-3.2,27.2-13.2,29.8-15.6,4-3.7,8.4-12.4,8.9-17.7,1.1-10.3,6-17.1,15-20.8,3.6-1.5,3.8-1.8,3.2-5-.4-1.8-2.4-7.2-4.6-11.8-5.2-11.3-6.4-18.2-5-29.3,3-23.9,5.6-32.8,12.8-43.7,7.1-10.9,18.3-18.8,30-21.2,6.5-1.4,7.5-1.3,14.8.5,4.6,1.2,9.9,3.4,12.7,5.3,5.8,3.9,13.1,13.6,17.6,23.5,4.5,9.8,8.4,32.8,7.9,45.7-.3,8.4-.7,9.7-5.6,20-2.9,6.1-5.2,11.8-5.2,12.6s2.1,2.5,5,3.8c6.4,2.9,9.2,5.9,10.4,11.2.8,3.1,1.8,4.7,3.4,5.4,2.1.9,2.3,1.5,1.7,5.1-.4,3,0,5.3,1.9,9.5,2.8,6.5,4.1,7.7,12.6,11.9,3.6,1.8,9,4.9,12,7,3,2,9.3,5.9,14,8.5,4.7,2.7,11.2,6.7,14.5,9,7.6,5.4,24.2,15.4,27.3,16.6,2.8,1.1,20.3-4.7,32.2-10.6,4.1-2.1,10.9-5.3,15-7.2,13-5.9,37.4-19.2,40.5-22.1,1.7-1.5,5.9-4.3,9.5-6.1,3.6-1.9,8.9-5,11.9-7s6.1-4.1,7-4.6c.9-.6,6.3-4.2,12.1-8,12.2-8,27.7-14.8,40.5-17.7,5-1.1,12.6-3.9,17-6.1,16.4-8.2,23.4-9.4,32.1-5.3,7.4,3.4,9.9,7.9,9.9,17.6s-.5,8.5-4,16l-4,8.5-.2,39.6c-.1,24.7-.6,41.1-1.2,43.6-1.2,4.5-7.6,13.1-11.7,15.8-3.5,2.3-14,3.1-18.8,1.5-7.2-2.4-13.5-12.5-16.5-19.1-3-6.6-4-9.3-5.1-13.9-1.1-4.6-1-14.2-3.6-14.5-3.4.5-4,7.3-3.7,12,.2,4.6,1.5,13.9,5,20,11.7,20.4,38.7,73.4,42.9,81.4,15.3,29.4,22.5,59,20.9,86.1Z"/>
  <path class="st0" d="M425,486.8c-1.6-3.1-5.4-12.2-8.6-20.2-3.1-8-6.2-15.1-6.8-15.9-.7-.7-2.9-2.4-4.9-3.7-2.7-1.7-3.8-3.1-3.8-4.8,0-3.1.7-3.3,14.1-4.1,10.5-.7,11.6-.6,13.7,1.3,2.9,2.5,2.8,3.2-.7,6.2l-2.9,2.5,2.7,6.5c1.5,3.6,4.5,9.7,6.7,13.7l3.9,7.2,5.3-11.7c2.9-6.4,5.2-12.6,5.2-13.8s-1.4-3.3-3-4.9c-2.2-2.1-3-3.7-2.8-5.5.3-2.8,1.4-3.1,15.8-4.8,4.1-.5,8-1,8.6-1.1.6,0,1.7.6,2.4,1.4,2,2.4.3,7.1-3.6,9.4-3.8,2.3-6.2,6.9-13.6,26.1-3.5,8.9-4.1,11.7-4.2,18.5,0,7,.2,8.6,2.7,13,1.6,2.7,4,7.9,5.4,11.5,4.8,12.2,8.4,19.1,11.9,23,2.5,2.8,3.4,4.5,2.9,5.9-.6,2.1-2.4,2.7-11,3.7-3.3.4-6.7,1-7.5,1.4-.8.4-3.2,1-5.3,1.4-3.3.6-3.8.4-4.9-1.9-1-2.3-.8-2.9,2.2-6l3.4-3.5-4.9-12c-2.6-6.6-5.1-12.3-5.5-12.5-.8-.5-8,13.3-8,15.2s-1.5,4.4-3.4,8.5c-3.1,6.5-3.3,7.4-2,8.9,2,2.2,3,8.4,1.5,9.4-.7.3-4.6,1.5-8.9,2.5-4.2,1-9.4,2.6-11.4,3.4q-4.8,2-4.8-.7c0-1.3,1.7-4.8,3.8-7.8,4.4-6.2,6-9.9,13.5-30.5,3-8.3,6.4-16.9,7.6-19.2,2.8-5.5,2.6-9.2-.8-16Z"/>
  <path class="st0" d="M315.3,844.9c-.4,1.4-1.5,2-3.3,2-4.6,0-13.8-2-17.7-4.2-5.4-2.9-12.4-6.4-14-13.2-.5-2.1-1.4-4-2.2-4.3-.9-.3-4.8,3.1-10.8,9.3-11.4,12.1-18.6,16.8-25.5,16.7-5.3-.1-14.5-4.4-16.5-6-1.3-1-5.8-4-9.1-7.5-14.7-15.8-22.4-33.3-26-59.8-2-14.8-3-46.5-1.5-48.3.9-1.1.8-1.7-.6-2.8-.9-.8-2.5-3.3-3.5-5.6-1.6-3.6,2.4-5.4,3.3-8.6.8-3.1,2.5-13.2,4-23.5-8.3,14.9-15.1,22.4-23.3,26.8-4.5,2.5-27.3,8.3-35.1-12.1-7.8-20.4-4.2-47,1.1-54.8,5.7-8.3,12.9-8.8,14.7-8.6,3.3.4,9,4.8,9.2,6.7.1,1.4-.8,2-5.7,4.4-9.7,4.6-11.3,7.8-10.6,21.5.7,15.2,5.3,24.3,12.6,26.7,7.3,2.4,17.5-2.8,27.4-21.3,1.2-2.2,2.4-4.4,3.7-6.7,1.2-3.3,2.4-7,3.1-8.4,2.1-4.3,6.2-37.2,6.5-69.5.3-29,.1-34-1.3-37.7-1.4-3.7-1.5-4.8-.3-8,.9-2.8,1.3-10.3,1.3-27.3s-.1-23.7-2.3-27.9l-2.3-4.4,2-2.1c2-2.1,2.1-3.4,2.1-33.2,0-39.2-.7-43.9-9-50.4-2.2-1.7-4-3.6-4-4.1s1-2,2.3-3.2c2.1-2.1,2.8-2.2,25.5-2.1,19.2,0,23.5.3,24.3,1.5,1.5,2.4,1,4-2.1,7.6-2.6,2.9-3,4.2-3,9s1.3,14.9,4,27.3c1,4.3,15.9,44.8,19.4,52.4.3.7.5,0,.6,0,.4-.5,2.4-5.7,4-11.1,1.7-5.9,13-34.7,15.2-44.3,5.1-21.8,5.3-29.3,1.2-34.7-2.1-2.7-2.5-4-1.7-5.2.9-1.4,3.8-1.6,19.9-1.8,10.4-.1,20.6-.4,22.8-.5,3-.2,4.1.2,5.3,1.8,1.3,2.1,1.1,2.5-3,6.6-2.8,2.7-4.9,5.9-5.6,8.3-1.5,5.4-1.5,185.4,0,190.7.7,2.5,2.7,5,6,7.8,7.5,6.3,6.7,9.3-3.1,10.4-6.4.7-15.9,3.9-27.1,9.3-8,3.8-9,3.8-10.2-.4-.5-1.6.4-3.3,3.8-7.2,2.5-2.8,5-6.8,5.5-8.9.7-2.4.9-25.1.6-65.2-.5-62.3-.9-74-2.6-74s-5.3,6.4-8,13.8c-1,2.9-19,50.2-19.4,62.2-.4,12.4-.5,12.5-3.5,15.2-3.2,2.9-7.4,3.5-8.5,1.7-.4-.5-.6-6.8-.6-12.6.2-16.3-13.3-53.7-18.3-70.2-2.1-6.8-7.3-8.1-8.7-8.1s-1.7,2.2-2.3,21.2c-.4,11.7-.6,43.9-.4,71.5,0,0-.6,18.8-1.1,37.8.3-.7.6-1.5.9-2.2,6.8-17.4,25.5-24.2,36.3-24.2s12.4,16.7,15.5,13.2c1.9-2,3.2-3.7,4.3-5.3,2.9-3.9,2.7-3.7,5.4-4.1,5-.8,1.7,6.5.3,9-1.3,2.3-8.1,22.2-9.7,30.6-5.5,29.1,12.6,23.2,6.6,29.3-3.2,1.8-12.8,4.5-18.6-4.4-3.7-5.7-3.3-12.7-2.2-18.2,1.4-7,3.5-9.8,3-17.7-.8-12.7-15.3-19.1-24.3,2.7-3.7,9-8.4,22.7-11.6,38.2.2.5-.3,2.5-.6,2.9-3.2,17-4.3,36.1-.1,53.8,1.2,5.2,5.1-.5.4,8.7-1.7,3.3-1.8,6.4-1.6,26.7.3,35.8,3.3,57.3,10.1,71.2,2.5,5,4,6.8,8.2,9.4,2.9,1.7,6.2,3.2,7.5,3.2,3.9,0,14.7-5.9,20.3-11,5.7-5.3,12.5-16.4,14.1-23.2.5-2,1.4-23.2,1.9-47.1.8-34.1.7-43.6-.3-44.2-2.8-1.8-6.5-.8-9.6,2.7-3.5,4-4.4,7.1-6.6,21.4-.8,5.7-2.2,12.8-3.2,15.7-1.4,4.5-1.9,5.2-3.4,4.4-2.5-1.4-2.8-5.3-3.4-37.4,0,0-.7-28.5-.4-28.8.3-.3,2.7.7,2.7.7,7.5,2,12.9,1.7,19.8-1,11.8-4.7,34.7-16.3,39.8-20.2,8-6.2,7.3-10.1,8.8-8,1.8,2.3,1.5,9.5-2.1,16.1-1.6,3.1-3.7,5.4-5.7,6.4-4,1.8-7.9,9.3-9.5,17.7-1.7,9.3-1.8,127.6,0,133.5,1.7,5.7,5.2,11,7.4,11s3.3,4.8,2.3,8Z"/>
  <path class="st0" d="M562.9,676.7c.1-6.2-6.6-2.2-7.2,6.9-.2,3.7-1.6,9.8-2.8,13.7-2.6,8.3-6.8,16.9-11.5,19.2s-16.7,7.6-20.1,5.6c0-6.8.3-15.2.6-23.1.6-14.3,1.4-54.6,1.9-89.5.4-34.9,1.1-64.8,1.5-66.5.5-1.6,2.9-5,5.5-7.5,5.6-5.4,6.3-7.1,4.4-9.9-.8-1.1-2.3-2.1-3.2-2-.9,0-6,2.2-11.2,4.9s-13.8,6.3-19.1,7.9c-13.3,4.2-16.5,8.4-9.2,11.8,6,2.9,7.2,5.5,8.2,17.8,1.2,15.4,1.4,64.5.3,67.5-.6,1.4-2.3,4-4,5.8l-3,3.2,2.2,1.8c5.7,4.5,5.6,3.7,5.6,42.2s-.3,46.6-5.5,53.9-3.6,13.1-.2,13.1,6.8-4.8,8.1-5.7c2.8-2,17-6.6,22.6-8.1l9.1-3.5c4.5-1.9,8-3.2,9.7-4,6.5-2.9,11.1-6,17.3-3,2.4,1.2,7,2.8,8.8,1.9,8.9-6-9.8,1.3-8.9-54.4Z"/>
  <path class="st0" d="M766.4,476.6c-.8,8-2.2,20.8-3,28.5-.7,7.1-1.5,13.6-2.4,23.1-.2,1.7,3,3.4,2.8,5.1-.1,1.3-3.6,5.1-3.7,6.4-.8,8.5-1.5,17-2.1,24.4-1.1,13-1.8,19.2-5.6,50.5-4.4,36.4-4.4,36.7,2.7,39.9l4.1,1.9-3.4,2.5c-1.8,1.4-6.8,3.9-11.1,5.6-4.3,1.7-10.4,4.5-13.7,6.1-6.8,3.4-8.2,3.6-10,1.5-1.1-1.3-.9-2.3.8-5.9,1.8-3.5,2.2-6.1,2.2-13.3s-2.7-35.8-5.5-55.8c-.7-5.5-1.7-12.4-2-15.3-.6-4.9-2.5-7.5-4.2-5.9-1.1,1.2-5.2,25.8-6.8,41.6-.9,9-2.3,20-3.1,24.5-.8,4.4-1.7,12.6-2.1,18.1l-.5,10,3.1,2.8c3.2,2.8,4,6,1.9,7.3-.7.5-3.5,1.1-6.3,1.5-2.7.4-7,1.6-9.5,2.7-11.4,5.2-19.2,8.1-20.4,7.6-2.9-1.1-2.4-3.6,1.8-9.4,2.5-3.3,4.7-7.3,5.1-9,.6-2.8-.7-19.5-2.6-33.5-1.1-7.7-3.1-25.1-5.4-47.4-.9-7.9-2-17-3.5-19.7-2.8-5.3-1.6-6.1-.8-9,2.1-7.8-5.5-68.4-9.7-76.4-.9-1.7-3.2-4.1-5.1-5.2-4.1-2.4-4.6-6-1.1-8.2,1.2-.8,5.8-2.6,10.2-4.1s11.2-4.4,15.1-6.6c11.4-6.2,16.3-4.4,9.4,3.5-6.8,7.7-6.9,9.4-2.9,41.6,1.1,8.5,3.1,28.5,4.4,44.5,2.8,32,4.5,51.6,4.5,52.7s.4.8.8.8,1.4-3.9,2.1-8.8c.7-4.8,2.4-15.5,3.7-23.8,1.3-8.2,2.7-20.4,3-27,.7-14.4,3.9-48.4,6.4-69,1.2-10,1.3-15,0-19.2-.8-2.8-.6-3.6,1.6-6.3,2.4-2.8,10.9-7.9,13.2-7.9s5.3,16.5,8.1,39.5c1,8.2,2.7,20.8,3.8,28,1.1,7.1,2.7,19.7,3.6,28,3.3,30.9,3.8,34.5,5.1,36.1,1.4,2,1.5,1.5,4-21.1.9-8.3,2.9-26.5,4.5-40.5s3.4-30.2,3.9-36c.6-5.8,1.7-15,2.6-20.5,2.4-16.2,2.2-18.8-2.2-22.8-3.5-3.4-3.6-3.6-2-6,.9-1.4,4.4-3.6,8.4-5.2,3.7-1.6,8.8-4.3,11.2-6.2,5-3.8,4.6-3.6,7.2-2.3,2.1,1.2,2.5,4.1.8,7.2-.6,1.1-2.4,5.7-4,10.3-3,8.7-4.8,19.4-7.4,43.5Z"/>
  <path class="st0" d="M855.2,701.8c-8.5,8.3-10.4,9.6-19.3,12.9-5.8,2.1-9.9,2.9-14.6,2.9-7.2,0-8.6-.5-15.9-6-6.6-4.9-7.7-5.2-11.4-2.9-2.9,1.8-4.3,4-7.1,11.6-1.1,2.8-1.7,3.3-4.6,3.3s-3.5-.3-3.7-.8c-.6-.9-1.8-37.3-2.2-66.2-.5-33.5,1.9-48.4,9.6-59,3-4.2,10.3-8.4,13.1-7.6.7.2,2.5.7,4,1,4,.9,9.8,6.3,9.8,9.2s-1.2,3-7.4,5.8c-12.2,5.6-14.5,10.2-15.3,31.2-1,23.5,1.6,35,11,49.2,3.8,5.6,5.8,7.6,9.9,9.6,10,5,20.3,2.3,28.3-7.3,8-9.6,10.6-19.1,10.6-38.6s-3.3-33.6-16.5-60c-9.6-19-15.5-31.7-19.7-37-2.6-3.2-6-1.9-5.3-6.4.4-2.5.8-5.3-.9-7.9-6.4-9.6-17.8-35.2-22.9-51.1-3.9-12.4-4.9-31.5-2.4-45.5,2.2-11.9,8.2-31.1,11.1-35.6,7.7-11.8,28.2-24.9,39-24.9s6.2,1.1,9.4,2.4c3.1,1.3,7.8,2.6,10.3,3,4.4.7,4.5.6,7-3.1,1.3-2.1,3.6-6.4,5.1-9.6,2-4.4,3.4-6.1,5.9-7.2,4.2-1.8,4.7-1.8,5.4-.2.3.8-.5,4.7-1.6,8.8-1.7,5.9-2.3,11.8-3,29.4-.5,12.1-.7,24-.5,26.5s.4,11.5.5,20c0,14.8,0,15.6-2.1,17.2-2.8,2.3-5.2,2.3-7.3-.1-1.4-1.5-2-4.9-2.7-14.3-1.5-19.2-6.9-36.9-13.9-45.8-10-12.6-26.7-7.3-33.9,10.8-4.5,11.5-4.2,32.7.6,47.1,3.9,12,19.2,45.7,23.2,52.3,3.5,5.8,5.5.5,7.5,6.5,1.6,5.1-.1,7.4.6,8.5,1.9,2.9,9.3,16.2,16.7,30,11.5,21.5,17,38.9,19.4,61.1,3.1,29-6.4,60-23.7,76.9Z"/>
  <path class="st0" d="M394.4,558.6c-3.1-3-4-5.8-6.5-21-2.9-18-2.8-19.3,2-24.8,5.4-6,5.1-8.4-1-9.5l-4.6-.8-2.3-12.7c-1.3-7-3.2-17.9-4.3-24.2l-2-11.5,3.8-3.1q3.7-3.2,2.1-5.8c-1-1.4-2.1-2.6-2.5-2.5-.4,0-2.3.5-4.2,1.1-1.9.5-9.8,1.2-17.5,1.6-13,.6-14,.8-14.2,2.7-.2,1.3.8,2.7,3,4,2.9,1.8,3.2,2.5,3.5,7.5.3,5.6-7.8,49.2-9.8,53-.6,1.1-2.8,2.4-4.9,3-6.3,1.7-6.8,3.3-2.1,6.5,2.2,1.5,4.3,3.9,4.6,5.2.7,2.7-2.1,21.7-4.6,31.8-1,3.8-2.2,9.2-2.5,11.8-.6,3.6-1.8,6-4.7,9.4-4.9,5.6-4.7,7.7.7,8.1,7.5.5,29.6-9.7,24.8-11.5-3.1-1.1-6.3-4.6-6.3-7s3.3-20.1,5.1-26.8c1-4.1,1.1-4.1,7.7-5.3,3.7-.6,7.9-1.4,9.3-1.8,3.2-.7,3.2-.6,6,13.1l2.1,10.3-2.6,2.5c-2,2-2.6,3.6-2.6,6.7s.3,4.1,1.8,3.6c.9-.2,6.2-1.7,11.7-3.1,5.5-1.5,10.8-3.1,11.8-3.6,2.4-1.4,2.1-4.2-.8-6.9ZM360.1,523.6c-5.2,0-5.7-1-4.3-9.2,1-6.2,4.3-21.3,5.7-25.6.8-2.6,2.1-.2,2.8,4.9.4,2.8,1.8,8.6,3.1,12.8,1.4,4.2,2.5,8.1,2.5,8.8,0,2.4-7,8.3-9.8,8.3Z"/>
  <path class="st0" d="M488.4,705.6c-.2-3.4-.7-4.6-2.3-6.4-.6-.7-1.2-1.3-1.7-1.7-.4-.3-.7-.6-1-.7-.3-.1-.6-.1-.8,0-.7.3-1.1,1.6-1.6,4.2-.3,1.9-.6,4.4-1,7.7-.2,2.2-.6,4.3-1,6.3-.2,1-.4,2-.7,2.9-1,3.8-2.2,7.2-3.8,10.2-.4.8-.8,1.5-1.3,2.2-3.5,5.7-8.4,9.9-14.7,12.9-.7.4-1.5.7-2.2,1s-.9.4-1.4.6c-2.4,1.1-4.3,1.8-4.8,1.8s-.8-2.2-1-8.4c0-.4,0-.8,0-1.3,0-.9,0-1.9,0-2.9,0-1.1,0-2.2,0-3.4s0-2.5,0-3.9c0-2.1,0-4.4,0-6.8,0-1.7,0-3.4,0-5.3,0-4.6,0-9.9,0-15.8,0-6.1,0-12.1,0-17.9,0-3.9,0-7.6,0-11.3,0-1.8,0-3.7,0-5.5,0-6.3,0-12.4,0-18.1,0-3.3,0-6.5,0-9.5,0-1.5,0-3.1,0-4.5,0-3.7,0-7.3,0-10.6,0-.7,0-1.3,0-2,0-11.9.2-21.4.3-28.1,0-.7,0-1.4,0-2.1,0-1.3,0-2.5.1-3.6,0-1,0-1.9.1-2.7,0-.4,0-.7,0-1,0-.4,0-.8.1-1,0-.2,0-.4.1-.6,0-.4.2-.8.3-1.2.2-.6.4-1.1.6-1.7.3-.6.6-1.1,1-1.7.3-.4.6-.8.9-1.3.8-1.1,1.9-2.3,3.2-3.8.8-.8,1.4-1.6,2-2.2.4-.4.7-.9,1-1.2,1.4-1.7,2-2.9,1.9-3.8,0-.2,0-.4-.1-.6-.6-1.9-1-2.8-3-2.5-.4,0-.9.2-1.4.3-2.5.8-6.6,2.7-13.6,6.2-6.6,3.2-15.1,6.6-19,7.5-1.6.4-2.9.7-4,1.1-.4.1-.7.2-1,.3-1,.3-1.7.6-2.3.9-1.2.6-1.8,1.4-2,2.4-.1.5-.2,1.1-.2,1.8s0,1.1.2,1.5.1.4.2.6c0,.2.2.4.4.6.1.2.3.4.5.5.6.5,1.5,1.1,2.7,1.7,5.7,2.9,7.1,3.7,7.5,22,.1,4.1.2,9.1.2,15.2,0,1.1,0,2.2,0,3.4,0,1.2,0,2.4,0,3.7l.3,35.6-3.3,3.1c-.5.4-.9.8-1.3,1.2-.6.6-1.2,1-1.7,1.4s-.8.5-1,.5c-.6,0-.8.2-.8.6,0,.3.2.8.6,1.3.7,1,1.9,2.3,3.6,3.9l4.2,3.9-.3,36.2c0,12.2-.2,21-.5,27.7,0,.7,0,1.3,0,1.9,0,1.2-.1,2.4-.2,3.5-.4,5.4-.9,8.9-1.7,11.7-.3,1.1-.7,2.1-1.2,3-.6,1.2-1.2,2.2-2,3.4-.2.3-.4.5-.6.8-2.6,3.6-6,6.1-7.9,5.8-.1,0-.3,0-.4-.1,0,0-.2,0-.3-.2-.7-.5-1.6-1.7-2.3-3.1-.1-.2-.2-.5-.4-.7-.8-1.6-2.3-7.8-4.2-16.1-.2-1.1-.5-2.3-.7-3.4-.1-.6-.3-1.2-.4-1.8-.5-2.4-1-5-1.6-7.6-.1-.7-.3-1.3-.4-2-1.2-6-2.4-12.4-3.5-18.7-.2-.9-.3-1.7-.5-2.6-.5-2.6-.9-5.3-1.3-7.6-.1-.8-.3-1.5-.4-2.2-.4-2.1-.7-3.8-.9-4.8-.2-1-.3-1.8-.5-2.6-.2-1.2-.3-2.3-.4-3.3,0-1.3,0-2.4.2-3.4,0-.5.2-1,.4-1.4.2-.7.6-1.3,1-1.9.3-.4.6-.8.9-1.2,3.4-4.1,3.1-6-1.2-8.9-.7-.5-1.3-.9-1.9-1.3-.8-.7-1.4-1.4-1.8-2.2s-.8-1.7-1-2.9c-.5-2.2-1.5-6.5-2.3-9.5-.4-1.5-.8-3.1-1-4.5-.2-1-.3-1.9-.4-2.5,0-.2,0-.4,0-.5,0-.4-.2-1.8-.4-3.9,0-.3,0-.7-.1-1.1,0-.8-.2-1.6-.3-2.5-.1-.9-.2-1.8-.4-2.8-.1-1-.3-2-.4-3.1-.2-1.6-.5-3.2-.7-4.9-.4-2.8-.9-5.8-1.3-8.7-.2-1.2-.3-2.3-.5-3.4-.2-1.7-.4-3.3-.6-4.8-.1-1-.2-1.9-.3-2.8,0-.4,0-.9-.1-1.3,0-.8-.2-1.5-.2-2.2,0-.3,0-.6,0-.9-.3-4.5-.3-7.3.6-9.8.8-2.5,2.5-4.5,5.3-7.3,1.2-1.1,1.9-1.9,2.4-2.6.3-.5.5-.9.5-1.3,0-.1,0-.2,0-.3,0-.5-.2-1.1-.4-1.9-.2-.6-.5-1.2-.8-1.7-.1-.2-.2-.3-.3-.5-.2-.3-.4-.6-.6-.8s-.2-.2-.3-.3c0,0-.2-.1-.3-.2-.3-.1-1.3.2-2.7.7-2.4.9-6.1,2.6-10,4.5-7.7,4-14.4,6.5-21.1,8.1-1.1.3-2,.5-2.9.7-.9.2-1.6.4-2.3.6-1,.3-1.8.6-2.5.8-.5.2-.8.4-1.2.5-.8.5-1.4,1-1.8,1.6s-.3.6-.5.9c-.4.8-.7,1.4-1,2,0,.2-.1.4-.2.5-.1.3-.2.6-.2.9,0,1.3,1.2,1.8,4.1,2.8,2.2.8,3.9,1.8,5.1,3.3.4.5.7,1,1,1.6.4.9.7,1.9.9,3.1.2,1.2.3,2.5.3,4,0,1,0,2.1-.2,3.2,0,.9-.3,2.4-.5,4.4-.1.8-.2,1.7-.4,2.6-.3,1.9-.6,4.1-.9,6.5-.2,1.2-.4,2.5-.6,3.8-.8,5.4-1.8,11.7-2.9,18.5-.3,1.7-.6,3.5-.8,5.2s-.6,3.6-.9,5.4c-.3,1.8-.6,3.7-.9,5.6-.6,3.7-1.3,7.6-1.9,11.4-.2,1-.3,1.9-.5,2.9,0,.5-.2,1-.3,1.5-1.3,6.9-2.2,8.4-6.6,10.5-3.3,1.8-5.1,2.9-5.4,4.2,0,.3,0,.7,0,1,.1.4.3.8.6,1.2s.6.9,1.1,1.4.9,1.1,1.5,1.7c2.9,3.1,4.1,5.1,4,8.2,0,1.9-.6,4.1-1.5,7.3-.6,1.9-1.1,4.7-1.5,7.4,0,.5-.1,1.1-.2,1.6-.1,1.1-.2,2.1-.3,3,0,1-.1,2-.3,3.1-.4,3.8-1,8.4-2,14.1-1,5.7-2.4,12.6-4.1,21.2-.6,2.7-1.1,5.1-1.6,7.3-.5,2.1-1,4-1.5,5.7-.2.6-.3,1.1-.5,1.6-.4,1.3-.8,2.5-1.3,3.6-.6,1.6-1.3,3.1-2.1,4.5-.1.2-.2.4-.3.6-.6,1.1-1.2,2.1-1.9,3.2-.3.5-.5.9-.8,1.4-.7,1.3-1,2.4-.9,3.5,0,.5,0,.9.2,1.4.2.6.4,1.1.7,1.5,1.3,1.7,4,1.5,9.1-.7,7-3,16-5.9,20.3-6.7,1.1-.2,2.2-.5,3.2-.9.3-.1.5-.2.7-.3,1.4-.7,2.7-1.7,3.5-2.7.4-.5.7-1,.9-1.6.1-.4.2-.7.2-1.1s0-.3,0-.5c0-.3-.2-.7-.3-1-.2-.5-.5-1-.9-1.5-1.3-1.6-3.4-2.8-5.2-2.8s-3.4-1.4-4.1-4.2c-.1-.5-.2-1.1-.3-1.7-.1-.9-.2-1.9-.2-3,0-2.5.7-7.8,1.7-13.3.1-.8.3-1.6.4-2.3.4-1.9.8-3.8,1.1-5.5,0-.3.2-.7.2-1,.8-3.3,1.5-5.8,2-6.6,1.6-2.5,15-8.5,22.5-10.5.3,0,.5-.1.8-.2.5-.1,1-.2,1.4-.3.2,0,.4,0,.6,0l4.8-.5,1.7,9.4c.2,1.1.4,2.1.5,3.1.8,5.1,1.2,9.4,1.2,13.1,0,2.2-.2,4.2-.5,6-.4,2.4-1.2,4.4-2.1,6.1-.7,1.3-1.7,2.4-2.7,3.4-1.2,1.1-2,2.6-2.4,4.1-.2.9-.3,1.7-.2,2.4,0,.9.4,1.6,1.1,2,1,.6,12.9-3.7,25-8.8,3.7-1.5,7.3-3.1,10.8-4.7,3.4-1.6,6.6-3.1,9.2-4.4,11.6-6,38.9-16.9,48.8-19.5,1.8-.5,3.1-.7,4.5-.7,1.3,0,7.8,3.4,10.4,3.2,2,0,1.8-3.7,1.7-4.2-.3-1.7-1.4-4.2-.9-10.5s1.2-10.1,1.2-10.5c0-.8.7-5.8.7-7,.1-2.3.2-4.6.3-6.8,0-1.1.1-2.2.2-3.2,0-1.7.1-3.4.2-4.8,0-.9,0-1.7,0-2.5,0-.3,0-.5,0-.8,0-.7,0-1.4,0-2.1,0-.4,0-.8,0-1.1,0-.3,0-.7,0-.9,0-.1,0-.3,0-.4,0-1.1,0-2,0-2.8ZM375.3,727c-.5,1.2-13.9,6.6-20.6,8.2-2.3.5-2.8.3-2.8-1.2,0-2.7,9.9-63.4,11.1-67.7,1.3-4.8,3.3-4.3,3.7.9.6,7.9,7.2,53.3,8.2,55.8.5,1.4.7,3.2.4,4Z"/>
  <path class="st0" d="M649.1,581.3c-2.1-2.5-3.2-13.6-3.2-31.6s-1.2-33.5-3.6-41.9c-1.9-6.8-9.1-14.5-14.9-16.1-6.2-1.7-16.3-1.3-22.4.9-13.2,4.8-27.2,21-30.2,35.2-.7,3.3-1.2,18.5-1.3,40.1v34.9c0,0-3.3,2.5-3.3,2.5l-3.2,2.5,3.5,3.4,3.6,3.3-.4,12.3c-.2,6.8,0,24.9.8,40.3,1.2,30.7,1.7,33.1,7.7,39.3,4.2,4.4,7.3,5.9,13.5,6.8,18,2.4,38.9-13,46.5-34.3,3.9-10.7,4.7-20.8,4.6-53.4-.2-25,.1-30.4,1.5-36.2,1.2-4.6,1.5-7.2.8-8ZM621,679.1c-.8,2.2-3.4,6.1-6.1,8.8-4.5,4.5-5.2,4.8-9.2,4.5-4.1-.3-4.4-.6-6.8-5.3l-2.5-5v-76.5c0-42.1.3-78.1.8-80.1.8-3.9,7.7-12.5,11.1-14,5.3-2.2,12,1.3,13.6,7,1.6,6.2.8,155.4-.9,160.6Z"/>
  <path class="st0" d="M565,402.4c-.5-.3-3.5,1.2-6.7,3.2-3.2,2.1-7.7,4.6-10,5.7-4,1.7-4.1,2-4.5,7-.2,2.8-.2,13.9,0,24.6.3,17.2.2,20.1-1.5,24.5-1.5,4.1-2.3,5.1-4.6,5.3l-2.7.3v-7.9c0-4.3-.4-11.4-1-15.8-.5-4.3-1.4-12.2-2.1-17.5-1.1-9.7-2.1-13-3.5-11.6-.5.4-1.1,11.3-1.4,24.1-.5,20-.8,23.7-2.4,26-1.4,2.2-2,2.5-3.1,1.6-3.1-2.6-3.8-8.1-3.1-24.2.4-9.8.2-15.8-.3-15.8s-2.5,4.8-4.3,10.7c-2.3,7.4-3.9,10.9-5,11.1-.9.2-1.9-.5-2.3-1.7-.7-2.3,3.7-26.6,6-33.1,1.1-3.2,1.2-4.6.4-5.6-1.7-2.1-3.9-1.7-3.9.6s-5.4,16.9-7.4,19.5c-1.2,1.6-1.6,1.7-3,.6-.9-.7-1.6-2.3-1.6-3.5,0-3.9,3.2-12,6.2-15.9,3.4-4.4,3.2-4.9-4.1-9.6-6.9-4.4-7.8-4.2-8.7,2.5-1.2,10,.5,18.6,7.4,37,3.4,9,9.3,21.2,15.5,31.9,4.2,7.3,16.3,23.5,17.6,23.5s15.9-22.8,23.1-37c5-9.9,11.8-32,13.5-44.3.6-4.9-.9-15.2-2.5-16.2ZM554.3,446.2c-1.2.7-7.8-30.6-6.9-32.2,1-1.5,1.4-1.4,4.7,1,3.5,2.5,5.9,9.8,5.9,18.1s-1.8,11.9-3.7,13.1Z"/>
  <path class="st0" d="M538,829.7c-3.3-5-6-9.7-6-10.5,0-2.6-1.6-1.4-3.8,2.8-2,4.1-6.6,11.8-12.7,21.6-6.6,10.6-9.7,23.5-7.5,32,2.6,10.3,11.3,16.2,23.9,16.2s7.9-.5,9.9-1.9c1.5-1,3.7-2.1,4.8-2.5,3.8-1.2,7.5-7.8,8.1-14.3,1-10.9-4.2-24.3-16.7-43.4ZM542.9,876.2c-6.5,8.2-20.7,7.1-24.5-1.9-2.8-6.7-1.6-11.2,6.7-25.9,3-5.3,5.7-9.6,6.2-9.6,1.3,0,8.5,11.9,10.8,17.9,1.1,3.1,2.3,8.1,2.6,11.1.4,4.7.2,5.9-1.8,8.4Z"/>
  <g>
    <path class="st0" d="M566.5,374.5c-2.4-.9-4.3.3-5.4,3.5-.5,1.6-2.8,5.1-5.1,7.8-3.8,4.5-4.4,4.9-9.9,5.4-3.2.2-7.8,1.4-10.2,2.4-4.3,1.9-4.5,1.9-11.9,0-4.1-1-8.5-1.6-9.9-1.4-2.1.4-4-1-11.7-8.5-5-5-9.8-9.4-10.5-9.9-2.6-1.6-3.9-.7-3.9,2.7s2.9,5.2,9.7,11.8c9.1,8.9,9.8,9.3,12.6,8.5,2.5-.7,3.5-.4,5.9,1.6,5,4.2,7.9,4.3,26.2,1,7.2-1.3,9.9-2.3,13.8-5.1,2.6-2,4.8-4.2,4.8-4.9s1.6-3.2,3.5-5.5c3.7-4.4,4.5-8.4,2-9.4Z"/>
    <path class="st0" d="M557.8,317.4c4,.6,4.2.5,4.2-1.7,0-3.2-5-11-8.8-13.6-2.3-1.7-4.5-2.2-9-2.2s-6.3.4-6.6.9c-2.6,4.2,10.7,15.1,20.2,16.6Z"/>
    <path class="st0" d="M540.3,351.5c-6.7,1.4-12.1,1.3-24.3-.3-2.5-.4-4.2-.2-4.2.4,0,1.5,5.9,6.3,9.7,7.9,5.6,2.3,14.2,1.7,20.3-1.4,10.3-5.3,9.4-8.9-1.5-6.6Z"/>
    <path class="st0" d="M522.8,339.6s3.7-2.4,6.8-2.4,8.1,1.9,8.1,1.9c0,0,2-.5-.7-2.1-2.6-1.7-4.4-4.5-7-4-2.6.5-9.6,6.4-7.2,6.6Z"/>
    <path class="st0" d="M510.9,314.4c4.5-2.3,12.1-11.8,10.7-13.2-.4-.4-3.5-.9-6.9-1.1-5.2-.3-6.7,0-9.6,2-4.4,3-8.8,8.5-9.7,12.2l-.7,2.9,6.8-.7c3.7-.4,7.9-1.3,9.4-2.1Z"/>
  </g>
</svg>